<?xml version="1.0" encoding="UTF-8" standalone="no"?>
<!-- Created with Inkscape (http://www.inkscape.org/) -->

<svg
   xmlns:dc="http://purl.org/dc/elements/1.1/"
   xmlns:cc="http://creativecommons.org/ns#"
   xmlns:rdf="http://www.w3.org/1999/02/22-rdf-syntax-ns#"
   xmlns:svg="http://www.w3.org/2000/svg"
   xmlns="http://www.w3.org/2000/svg"
   xmlns:sodipodi="http://sodipodi.sourceforge.net/DTD/sodipodi-0.dtd"
   xmlns:inkscape="http://www.inkscape.org/namespaces/inkscape"
   id="svg3390"
   version="1.1"
   inkscape:version="0.91 r"
   width="250"
   height="250"
   viewBox="0 0 250 250"
   sodipodi:docname="happy-swine-new.svg">
  <metadata
     id="metadata3396">
    <rdf:RDF>
      <cc:Work
         rdf:about="">
        <dc:format>image/svg+xml</dc:format>
        <dc:type
           rdf:resource="http://purl.org/dc/dcmitype/StillImage" />
        <dc:title></dc:title>
      </cc:Work>
    </rdf:RDF>
  </metadata>
  <defs
     id="defs3394" />
  <sodipodi:namedview
     pagecolor="#ffffff"
     bordercolor="#666666"
     borderopacity="1"
     objecttolerance="10"
     gridtolerance="10"
     guidetolerance="10"
     inkscape:pageopacity="0"
     inkscape:pageshadow="2"
     inkscape:window-width="1600"
     inkscape:window-height="845"
     id="namedview3392"
     showgrid="false"
     inkscape:zoom="1.712"
     inkscape:cx="20.512424"
     inkscape:cy="66.465641"
     inkscape:window-x="0"
     inkscape:window-y="30"
     inkscape:window-maximized="1"
     inkscape:current-layer="svg3390" />
  <path
     style="fill:#000000"
     d="m 152.5,248.06121 c 0,-1.06632 2.10937,-2.80983 4.6875,-3.87447 8.67436,-3.58208 9.0625,-4.38433 9.0625,-18.73166 l 0,-12.90745 -3.4375,-0.6851 c -1.89063,-0.3768 -5.92908,-1.523 -8.97434,-2.5471 -3.90704,-1.31392 -5.7852,-1.46013 -6.38063,-0.49672 -0.46408,0.7509 -1.20423,6.8653 -1.64477,13.58755 -1.34505,20.52455 -0.70785,19.37665 -12.85889,23.16515 -11.00439,3.431 -12.95387,3.34052 -12.95387,-0.6012 0,-2.867 2.26418,-4.14451 10.9636,-6.18596 3.93171,-0.92264 7.08213,-2.46831 7.8125,-3.83301 1.87417,-3.50194 1.47215,-4.7821 -1.2761,-4.06343 -2.01877,0.52793 -2.5,0.0384 -2.5,-2.54325 0,-4.30785 2.24503,-5.4436 3.68133,-1.86236 1.0614,2.64648 1.16694,2.53199 1.23943,-1.3444 0.0465,-2.48676 -0.7325,-4.83075 -1.88571,-5.674 -2.06624,-1.51087 -1.37222,-8.2138 0.85046,-8.2138 0.61296,0 1.11449,-1.28747 1.11449,-2.86106 0,-2.18924 -1.57175,-3.68338 -6.69345,-6.36296 -3.6814,-1.92603 -9.60577,-5.70613 -13.16527,-8.40022 -6.27429,-4.74882 -6.58314,-4.84075 -10.11947,-3.01203 -2.07277,1.07186 -6.91262,1.88627 -11.209735,1.88627 -4.20805,0 -7.562075,0.55441 -7.562075,1.25 0,1.7912 -3.828755,1.54215 -6.151579,-0.40012 -1.08538,-0.90758 -7.19908,-2.61705 -13.58599,-3.79884 -12.57784,-2.32731 -30.05526,-9.27175 -39.81843,-15.82138 -7.94063,-5.32696 -13.39506,-11.46793 -17.9427,-20.2011 -2.03245,-3.90305 -4.2704396,-7.45186 -4.9733196,-7.88627 -0.70289,-0.43441 -1.27842,-1.74101 -1.27896,-2.90356 -5.5e-4,-1.16255 -1.72486,-5.7577 -3.83182,-10.21145 -2.28479,-4.82967 -3.29333,-8.2769 -2.49901,-8.54168 0.7325,-0.24416 1.33181,-2.79899 1.33181,-5.67739 0,-2.8784 1.17597,-9.4409 2.61325,-14.58333 1.43729,-5.142435 2.70292,-12.162379 2.8125,-15.599879 0.17054,-5.349494 0.55933,-6.25 2.6983696,-6.25 3.56333,0 11.24735,-10.24501 9.3756,-12.500345 -1.03529,-1.247442 -0.95471,-1.936918 0.31687,-2.711253 0.93787,-0.571121 2.44355,-2.866527 3.34596,-5.100902 1.03372,-2.559484 2.50958,-4.0625 3.9891,-4.0625 2.79462,0 3.15217,3.174073 0.47335,4.202032 -1.03125,0.395729 -1.85723,1.440285 -1.8355,2.321236 0.0217,0.880953 1.4274,0.02416 3.12372,-1.903991 3.42007,-3.887465 15.48453,-9.780994 21.04361,-10.279875 7.42526,-0.666356 9.25693,-2.731566 10.86188,-12.246769 2.07906,-12.32609 1.76312,-12.637791 -13.25635,-13.078323 -6.76353,-0.198379 -13.05484,-0.98936 -13.98067,-1.757734 -1.19157,-0.988916 -1.5772,-3.987499 -1.32001,-10.26431 0.3477,-8.486125 0.49764,-8.8730933 3.48832,-9.0028063 6.67412,-0.289473 7.5,-0.549841 7.5,-2.3644608 0,-2.1227113 1.95741,-2.51419405 3.125,-0.625 1.27514,2.0632257 11.60002,1.5193739 12.82846,-0.6757255 1.23284,-2.2029652 5.29654,-1.21424915 5.29654,1.2886723 0,1.851426 3.87894,3.0956513 9.72673,3.1199853 2.39397,0.01 4.38779,0.76254 4.78881,1.807558 0.68893,1.795346 -1.24499,24.205123 -2.71343,31.442398 -0.96585,4.760199 1.83375,8.017113 6.89138,8.017113 2.392179,0 3.711749,-0.752633 4.131095,-2.356219 0.465579,-1.780376 1.41768,-2.202999 3.89579,-1.729279 3.802703,0.726934 4.199635,2.175415 1.092124,3.985374 -1.673084,0.974482 -0.511883,1.283041 4.937887,1.312112 5.371763,0.02866 7.411673,-0.473553 8.288633,-2.040606 1.03239,-1.844776 1.25879,-1.777602 2.0125,0.59712 1.09504,3.450169 9.06145,5.792018 13.70166,4.027814 C 124.62843,50.203146 125,49.373148 125,44.043563 c 0,-3.310074 0.84375,-9.25769 1.875,-13.216926 1.03125,-3.959236 1.875,-10.27884 1.875,-14.043563 0,-6.151115 0.31676,-6.965384 3.125,-8.033073 C 133.59375,8.096533 135,6.704205 135,5.6559387 c 0,-2.4743684 4.8504,-2.5002507 5.79796,-0.03094 0.97285,2.5351993 14.87554,2.6803213 15.84062,0.16535 0.93509,-2.4368049 6.80345,-3.2925786 8.50653,-1.2404932 0.79114,0.9532482 3.78249,1.7001435 6.80917,1.7001435 6.25419,0 7.92032,1.685484 4.93115,4.988463 -1.44807,1.600109 -2.32395,5.460265 -2.79356,12.311837 -0.37626,5.489498 -1.09966,10.653292 -1.60757,11.475098 -0.70159,1.135204 -4.03908,1.193279 -13.89138,0.241723 -8.29215,-0.800871 -13.50055,-0.819811 -14.44512,-0.05253 -0.81247,0.659966 -2.89607,5.419965 -4.63023,10.577772 l -3.15302,9.377834 7.63078,7.172416 7.63079,7.172417 6.99944,-2.161324 c 3.84969,-1.188731 11.21819,-3.378549 16.37444,-4.866264 5.15625,-1.487716 11.30671,-3.575296 13.66768,-4.639067 3.35768,-1.51285 5.12742,-1.641552 8.125,-0.590874 4.51185,1.581441 10.63727,0.629514 11.56873,-1.797856 0.84252,-2.195587 2.85855,-2.18421 4.62579,0.0261 1.68103,2.102505 11.43096,4.106618 10.18707,2.093971 -0.452,-0.731345 -1.63237,-1.329721 -2.62305,-1.329721 -0.99067,0 -1.80122,-0.84375 -1.80122,-1.875 0,-2.148868 3.19265,-2.538088 4.42766,-0.539783 0.45387,0.734369 1.59719,1.038981 2.54071,0.676916 0.94354,-0.362065 2.22414,0.250574 2.8458,1.36142 1.15071,2.056212 15.26835,7.817958 19.24833,7.855702 1.38781,0.01316 2.1875,0.987971 2.1875,2.666533 0,2.151372 -0.52558,2.493843 -2.8125,1.832675 -11.0832,-3.204238 -25.27308,-4.646387 -40.3125,-4.097052 -8.9375,0.326454 -17.65625,0.855254 -19.375,1.175111 -7.45183,1.38678 -23.4543,5.000615 -27.15039,6.131366 l -4.02539,1.231497 3.7428,6.631887 c 4.15473,7.361755 7.43298,21.953354 7.43298,33.084354 0,3.94115 -1.12704,12.43963 -2.50453,18.88552 -1.6757,7.84137 -2.08936,12.13495 -1.25,12.97432 1.8682,1.8682 1.51646,5.38653 -0.62047,6.20656 -1.03125,0.39572 -1.875,2.11021 -1.875,3.80996 0,3.67119 -1.97028,5.23375 -4.23227,3.35646 -2.47077,-2.05056 -3.31897,-0.2541 -2.44895,5.18675 0.78478,4.90768 0.77662,4.91944 -3.13051,4.5096 -3.44559,-0.36142 -5.20362,0.84307 -14.59881,10.00202 -8.83808,8.61586 -10.99713,10.15095 -12.51047,8.89498 -1.51896,-1.26062 -1.82149,-1.01522 -1.7847,1.44764 0.0347,2.32219 1.96362,4.11808 8.89133,8.27805 4.86588,2.92188 9.565,5.3125 10.44251,5.3125 0.87752,0 6.57954,1.29601 12.67117,2.88004 l 11.0757,2.88002 -0.41157,-7.70833 c -0.36797,-6.89213 -0.14121,-7.77904 2.14155,-8.37599 3.75467,-0.98186 4.96774,1.35206 5.391,10.3722 l 0.37902,8.07706 20,-0.23519 c 18.03477,-0.21208 45.05827,-3.2373 54.0625,-6.05216 2.30775,-0.72144 2.8125,-0.4044 2.8125,1.76656 0,1.81245 -0.78742,2.64579 -2.5,2.64579 -2.22942,0 -2.52594,0.91323 -2.73967,8.4375 -0.13182,4.64063 -0.0899,12.375 0.0933,17.1875 l 0.33295,8.75 -9.15578,4.06766 c -10.64833,4.73077 -14.78075,5.18997 -14.78075,1.64245 0,-2.61136 6.0402,-7.58511 9.21148,-7.58511 1.0728,0 2.54143,-1.10405 3.2636,-2.45345 0.77183,-1.44216 2.07805,-2.1599 3.16898,-1.74126 1.02076,0.3917 1.85594,0.0895 1.85594,-0.67155 0,-0.76106 -0.50233,-1.38374 -1.11627,-1.38374 -2.04818,0 -2.55091,-3.65425 -0.75041,-5.45475 1.53613,-1.53612 1.44418,-1.86416 -0.67811,-2.41915 -2.86094,-0.74815 -3.34731,-4.6261 -0.58021,-4.6261 1.36241,0 1.875,-1.40395 1.875,-5.13551 0,-4.85408 -0.1713,-5.09251 -3.12587,-4.35096 -1.71922,0.43148 -5.67207,1.13353 -8.78412,1.56008 -3.11205,0.42655 -5.93983,1.23114 -6.28396,1.78795 -0.34414,0.55683 -3.33903,0.69105 -6.6553,0.29829 -5.47643,-0.6486 -6.09639,-0.45871 -6.75759,2.06971 -0.89215,3.41157 -3.86683,2.72812 -4.4176,-1.01497 -0.5246,-3.56516 -6.32718,-3.6989 -9.31053,-0.21459 -2.56212,2.99235 -6.61631,3.25854 -8.14075,0.53451 -0.60497,-1.08101 -3.44542,-2.28008 -6.31211,-2.66458 -4.20309,-0.56375 -5.21217,-0.31852 -5.21217,1.26671 0,1.0812 0.60085,2.33716 1.33521,2.79102 0.73437,0.45388 1.02511,1.63337 0.64607,2.62109 -0.37902,0.98774 0.14513,2.11603 1.16479,2.5073 2.0157,0.7735 2.60478,6.69395 0.66604,6.69395 -0.65334,0 -1.76124,-0.98437 -2.46199,-2.1875 -1.16401,-1.99849 -1.27739,-2.00551 -1.31211,-0.0814 -0.0209,1.15837 0.494,3.50542 1.14424,5.21567 0.87877,2.31135 0.71833,3.49455 -0.625,4.60943 -0.99399,0.82493 -1.80725,3.10406 -1.80725,5.06472 0,4.52714 -5.04865,7.37905 -13.06293,7.37905 -4.305,0 -5.68707,-0.47116 -5.68707,-1.93879 z m -38.50512,-65.81403 c 11.07717,-3.56764 30.58394,-18.4399 35.86859,-27.34675 8.44163,-14.2277 11.1089,-25.88808 8.85456,-38.70915 -0.78006,-4.43645 -1.90807,-12.84753 -2.5067,-18.691275 -0.59861,-5.843754 -1.86433,-12.749413 -2.8127,-15.345912 -2.31955,-6.350577 -13.76975,-18.290815 -18.4349,-19.223844 -2.01171,-0.402345 -4.30166,-1.507496 -5.08876,-2.455892 -0.85419,-1.029239 -3.85914,-1.724356 -7.45426,-1.724356 -3.31274,0 -6.36137,-0.547214 -6.77472,-1.216032 -1.81383,-2.934843 -19.236786,-5.627591 -35.645989,-5.509148 -16.59029,0.119748 -21.89834,1.36543 -38.75,9.093762 -7.17594,3.290954 -21.38026,18.477483 -25.84434,27.631418 -4.69979,9.637314 -7.3401096,25.291739 -6.2445396,37.023939 0.8755896,9.3765 7.1556196,24.93084 11.5665696,28.64801 1.66227,1.40084 3.02231,3.20471 3.02231,4.00863 0,2.20673 15.84166,14.2941 24.57896,18.75402 20.15163,10.28633 43.7886,12.10864 65.665919,5.06258 z m -47.119879,-3.97024 c -9.9308,-2.10544 -12.22597,-3.48768 -24.12183,-14.52694 -9.781,-9.07669 -10.17826,-9.66885 -12.48467,-18.60995 -2.76491,-10.71855 -2.15145,-17.01505 1.65774,-17.01505 2.07282,0 2.56865,1.15141 3.2297,7.5 1.59935,15.35991 1.91671,16.00995 12.50802,25.61995 C 59.564711,172.04308 66.637991,175 80.567521,175 89.80682,175 106.25,170.92429 106.25,168.63419 c 0,-0.55775 2.47641,-2.7179 5.50314,-4.80035 3.02673,-2.08245 7.24028,-6.60946 9.36345,-10.06005 3.77889,-6.14149 5.52194,-7.42894 6.94358,-5.12869 3.2797,5.30668 -15.22995,23.67815 -28.676145,28.46206 -6.95685,2.47513 -23.537904,3.07177 -32.509024,1.16978 z m 8.35188,-14.42713 c -11.37842,-3.669 -17.72688,-10.59207 -17.72688,-19.33136 0,-12.96284 10.05016,-21.99183 24.50097,-22.01148 5.06541,-0.007 13.037408,2.09711 14.249029,3.76066 0.34375,0.47196 1.895069,1.52698 3.447374,2.34451 1.552306,0.81751 5.048646,4.30284 7.769636,7.74516 4.11347,5.20393 4.83139,6.93366 4.25969,10.26323 -1.25949,7.33526 -3.16246,10.6682 -8.00858,14.02656 -8.409609,5.82786 -17.26353,6.82315 -28.491239,3.20272 z m 18.057964,-3.34462 c 9.019235,-3.71718 15.118465,-11.71464 13.595905,-17.82731 -0.45248,-1.81659 -3.15743,-5.42114 -6.01099,-8.01012 -8.425374,-7.64415 -18.757729,-9.22792 -28.413149,-4.35526 -6.55945,3.31026 -8.66301,6.9204 -8.68818,14.91071 -0.0263,8.3462 4.81754,12.68619 17.16814,15.38234 3.95364,0.86309 7.260359,1.64241 7.348274,1.73185 0.08791,0.0894 2.337915,-0.73506 5,-1.83221 z m -18.704704,-6.42325 c -0.79013,-1.27846 1.14136,-17.72011 2.20685,-18.7856 1.9893,-1.9893 3.30081,2.63325 2.96192,10.43965 -0.29682,6.83734 -0.80089,8.69452 -2.44487,9.0078 -1.13902,0.21705 -2.36478,-0.0808 -2.7239,-0.66185 z m 13.213193,-9.12656 c 0.346088,-4.83705 0.946746,-9.11213 1.334795,-9.50018 2.012387,-2.01239 3.371871,1.86566 3.371871,9.61858 0,8.02496 -0.200265,8.67622 -2.667959,8.67622 -2.530769,0 -2.635602,-0.45224 -2.038707,-8.79462 z m 20.711256,-23.75607 c -6.33978,-3.34825 -11.015408,-9.77606 -10.960063,-15.0673 0.0647,-6.185645 3.113063,-18.011701 5.851403,-22.700394 2.82774,-4.841757 10.76018,-9.632473 15.99671,-9.661053 5.92329,-0.03233 17.08398,4.60851 20.20543,8.401818 3.22644,3.920902 5.3847,10.365306 5.39495,16.108874 0.0151,8.476945 -1.64999,12.288755 -8.2522,18.890965 l -6.57779,6.57778 -8.51901,-0.0552 c -5.95298,-0.0386 -9.91076,-0.79027 -13.13943,-2.49545 z m 16.43646,-3.25002 c 3.56555,-0.71311 6.90993,-3.40553 14.12145,-11.36855 2.70843,-2.99068 2.9187,-12.411033 0.41097,-18.412866 -2.85669,-6.837015 -11.7261,-9.908921 -21.97347,-7.610483 -6.00724,1.347395 -7.35923,2.684103 -11.44697,11.31761 C 101.0066,102.5333 101.2044,108.9544 106.75,114.5 c 4.46191,4.46191 8.91043,5.30541 18.19105,3.44929 z m -6.50355,-15.54941 c -3.8922,-2.26699 -2.43369,-10.057093 1.68146,-8.980956 3.72989,0.975388 6.26834,5.238891 4.77761,8.024336 -1.37891,2.57652 -3.2118,2.84798 -6.45907,0.95662 z m -69.328999,9.56006 c -8.81905,-7.92908 -11.01829,-16.232709 -7.18034,-27.110624 2.77259,-7.858353 8.4176,-13.035225 18.35442,-16.832297 14.34126,-5.480098 19.70072,-3.548732 29.048748,10.468169 2.637255,3.954431 3.522126,6.703635 3.374045,10.482794 -0.287785,7.344463 -2.444208,14.718658 -5.82467,19.918298 -3.633563,5.58894 -11.900843,8.61372 -23.542883,8.61372 -7.78288,0 -8.28478,-0.19541 -14.22932,-5.54006 z m 21.0539,0.51578 c 5.72192,-1.58936 13.74877,-7.8385 15.718719,-12.23747 0.828366,-1.849785 1.531491,-6.536788 1.5625,-10.415557 0.05317,-6.65182 -0.269633,-7.414912 -5.684459,-13.4375 -5.17266,-5.753247 -6.25515,-6.382475 -10.9375,-6.35774 -5.44359,0.02876 -14.75259,3.618718 -18.7447,7.228779 -8.82903,7.984106 -9.50763,25.615158 -1.26744,32.930168 3.95302,3.50919 11.67331,4.42245 19.35288,2.28932 z m -6.18382,-18.838448 c -2.19717,-0.8487 -2.80072,-1.920465 -2.5,-4.439458 0.50993,-4.271547 3.94313,-6.581641 6.95892,-4.682441 2.99865,1.888413 3.19995,4.357611 0.61553,7.550163 -1.72483,2.130688 -2.78072,2.457736 -5.07445,1.571736 z m 70.603199,-54.262271 2.29322,-10 8.125,0.06969 c 4.46875,0.03833 11.33008,0.534203 15.24741,1.101951 8.06686,1.169154 7.59634,1.759289 9.08286,-11.391882 l 0.73136,-6.470249 -4.38761,1.211476 c -2.93402,0.810125 -5.19464,0.779563 -6.82364,-0.09225 -2.75698,-1.475496 -10.71722,-1.685348 -19.30092,-0.508821 l -5.79946,0.794898 -0.0195,7.017595 c -0.0108,3.859677 -0.83448,10.392595 -1.8305,14.517595 -2.00114,8.28769 -2.50907,20.586057 -0.67112,16.25 0.58283,-1.375 2.09163,-7 3.3529,-12.5 z m -62.477889,4.140625 c -0.39903,-0.997167 -0.69523,-0.70097 -0.75521,0.755208 -0.0543,1.317708 0.24116,2.055989 0.65653,1.640625 0.41536,-0.415365 0.45977,-1.49349 0.0987,-2.395833 z m 2.38534,-27.07328 0.83029,-5.192345 -12.34726,-0.01087 c -6.79099,-0.006 -15.30039,-0.365577 -18.90976,-0.799113 l -6.5625,-0.788249 0,4.42638 0,4.42638 7.8125,1.01973 c 4.29687,0.560851 10.99387,0.844333 14.88222,0.629959 5.6457,-0.31126 7.53407,0.08912 9.375,1.98775 2.76397,2.850582 3.73153,1.729582 4.91951,-5.699626 z M 160.19312,233.06004 c 0.23753,-1.22533 1.18873,-2.47989 2.11375,-2.78791 1.07579,-0.35823 1.52625,0.24281 1.25,1.66783 -0.23752,1.22533 -1.18872,2.47989 -2.11375,2.78792 -1.07579,0.35822 -1.52625,-0.24282 -1.25,-1.66784 z M 217.5,178.125 c 0,-2.47792 0.54906,-3.20257 2.1875,-2.88704 1.20312,0.2317 2.1875,1.53087 2.1875,2.88704 0,1.35618 -0.98438,2.65534 -2.1875,2.88704 -1.63844,0.31554 -2.1875,-0.40911 -2.1875,-2.88704 z m 21.25,-39.375 c 0,-2.85034 2.76312,-3.32027 4.8361,-0.82249 1.6514,1.98982 0.6308,3.32249 -2.54444,3.32249 -1.45833,0 -2.29166,-0.90909 -2.29166,-2.5 z m -34.21065,-10.87731 c -0.43414,-0.43415 -0.78935,-1.85973 -0.78935,-3.16796 0,-1.73057 0.73957,-2.26978 2.71458,-1.97917 1.49303,0.21969 2.93347,1.06448 3.20097,1.87731 0.54636,1.66018 -3.89979,4.49623 -5.1262,3.26982 z m 16.66668,-17.30067 c -1.05638,-1.27286 -1.17941,-2.34864 -0.36208,-3.16597 1.73258,-1.73259 5.03677,-0.20317 5.79085,2.68042 0.78521,3.00266 -3.05472,3.34611 -5.42877,0.48555 z M 216.5625,96.586705 c -2.18937,-0.763704 -1.95928,-5.336704 0.26852,-5.336704 2.49526,0 4.92011,4.5491 2.83359,5.315914 -0.84679,0.3112 -2.24274,0.32056 -3.10211,0.0208 z M 101.25,39.846944 c 0,-2.207823 0.31235,-2.393828 1.86123,-1.108366 1.88125,1.561293 1.48057,3.761423 -0.68501,3.761423 -0.64692,0 -1.17622,-1.193875 -1.17622,-2.653057 z"
     id="path10460"
     inkscape:connector-curvature="0" />
  <path
     style="fill:#fb9a7a;fill-opacity:1"
     d="m 78.504673,185.73872 c -16.485939,-1.75162 -30.492571,-7.54378 -44.976636,-18.59919 -4.562908,-3.48277 -9.636177,-8.25715 -9.64408,-9.0759 -0.0034,-0.35497 -1.227505,-1.95966 -2.720176,-3.56597 -3.248477,-3.49578 -7.645157,-12.35692 -9.853951,-19.85981 -2.815714,-9.56449 -2.5809679,-22.51006 0.638729,-35.224042 2.609893,-10.305977 7.239424,-17.784667 17.368954,-28.058355 6.836947,-6.934246 9.601111,-8.947383 16.310674,-11.879046 13.292603,-5.808043 18.815251,-6.906314 34.728355,-6.906314 16.865491,0 29.026988,1.604517 33.984388,4.4837 1.96835,1.143183 3.79968,1.584045 8.11646,1.953899 4.20075,0.359911 5.97926,0.776799 7.21658,1.691589 0.90309,0.667683 3.16482,1.772695 5.02606,2.455582 2.84198,1.042716 4.3746,2.241998 9.56738,7.486559 8.94278,9.031943 9.62649,10.758376 12.15866,30.702038 0.65263,5.14018 1.60628,12.45756 2.11922,16.26084 1.1024,8.17398 0.58278,14.44363 -1.80273,21.75145 -2.05458,6.29405 -6.85967,15.42694 -10.25358,19.48867 -5.52052,6.60682 -19.27373,17.04991 -27.83552,21.13607 -9.80984,4.68181 -27.032134,7.15187 -40.148787,5.75823 z m 14.89486,-7.09072 c 2.409462,-0.33605 5.914708,-1.23249 7.789437,-1.99206 11.37188,-4.6075 27.23262,-19.92684 27.25181,-26.32157 0.003,-1.00476 -0.37199,-2.14012 -0.83335,-2.52301 -1.34551,-1.11668 -2.93988,0.14638 -6.10425,4.83577 -3.42573,5.0767 -6.76946,8.61001 -11.35115,11.9947 -1.86385,1.37691 -3.53671,2.88887 -3.71747,3.35991 -1.13542,2.95887 -16.443071,6.65936 -27.457662,6.63765 -12.264988,-0.0242 -19.137988,-3.08024 -31.417412,-13.96968 -9.264109,-8.21545 -10.236442,-10.04324 -11.753457,-22.09419 -1.092492,-8.67859 -1.679111,-10.29239 -3.832136,-10.54228 -3.551318,-0.41218 -4.443076,5.9099 -2.239521,15.87699 1.736391,7.85402 3.432559,11.01075 8.629332,16.06005 8.146255,7.91508 14.966667,13.54047 18.528819,15.28234 8.595322,4.20305 21.866502,5.43736 36.50701,3.39538 z m 1.450496,-13.45558 c 5.503981,-1.39854 11.785041,-5.6457 14.040131,-9.49373 1.77125,-3.02242 3.18388,-7.83013 3.19403,-10.87055 0.0124,-3.73296 -6.68971,-12.62198 -12.605241,-16.71817 -5.048108,-3.49555 -6.789732,-4.25588 -12.011291,-5.24368 -10.836022,-2.04992 -21.736921,1.8707 -26.698285,9.60231 -3.867732,6.02734 -4.477612,13.74146 -1.558166,19.7086 4.875479,9.96512 22.422818,16.37337 35.638822,13.01522 z m 41.319491,-47.12216 c 3.04152,-3.16883 6.11259,-6.96493 6.82461,-8.43575 3.26855,-6.75191 2.929,-15.906412 -0.87804,-23.673016 -1.83159,-3.736547 -2.5482,-4.573613 -5.60924,-6.552061 -6.05121,-3.911083 -13.66676,-6.20939 -18.62808,-5.621795 -5.88261,0.696708 -13.37052,6.16636 -15.62906,11.416469 -2.23567,5.196982 -4.246889,13.18779 -4.584091,18.213183 -0.400508,5.96892 0.583873,8.80171 4.555971,13.11093 5.1988,5.64003 9.6754,7.20719 20.75002,7.26413 l 7.66786,0.0394 5.53005,-5.76152 z m -61.602388,-1.57649 c 9.251332,-2.0881 13.315222,-6.16311 16.572336,-16.617661 1.059621,-3.401145 1.365006,-5.742373 1.373271,-10.528177 0.01037,-6.004326 -0.03923,-6.237395 -2.033767,-9.557577 -3.038569,-5.05811 -8.14802,-10.908366 -11.145718,-12.761701 -3.710883,-2.294262 -7.391805,-2.609733 -13.228551,-1.133745 -7.356053,1.86019 -14.401462,5.497644 -18.40724,9.503422 -3.892433,3.892434 -5.922418,7.846885 -7.218098,14.061 -1.065375,5.109565 -0.701319,8.861303 1.290181,13.295829 2.785553,6.20266 10.644858,13.62683 15.493525,14.63573 3.211586,0.66825 12.502834,0.18655 17.304061,-0.89712 z"
     id="path10481"
     inkscape:connector-curvature="0" />
  <path
     style="fill:#f4c6b1;fill-opacity:1"
     d="m 80.068143,160.05056 c -12.012733,-3.07918 -15.878513,-6.81028 -15.87096,-15.31801 0.0044,-4.95603 0.864203,-7.71403 3.216561,-10.31781 5.793147,-6.41232 17.583833,-8.307 26.176069,-4.2063 6.294223,3.00395 13.244297,10.32625 13.244297,13.95361 0,5.4396 -4.97586,11.58144 -12.388672,15.29167 -2.577219,1.28994 -5.378255,2.33339 -6.224524,2.31878 -0.846269,-0.0146 -4.515016,-0.78949 -8.152771,-1.72194 z m -1.221436,-6.19723 c 1.241249,-1.49561 1.495823,-14.5526 0.337772,-17.32421 -1.757641,-4.20663 -2.969343,-2.43374 -4.185926,6.12457 -0.918154,6.45894 -1.110774,11.12116 -0.485313,11.74662 0.741243,0.74124 3.559571,0.38551 4.333467,-0.54698 z m 12.800489,-0.22179 c 1.153096,-0.73197 1.242521,-15.34645 0.106393,-17.38738 -1.038191,-1.865 -2.850803,-1.7035 -3.278004,0.29205 -0.608002,2.84012 -1.408892,14.89274 -1.053807,15.85877 0.650245,1.76904 2.523139,2.31714 4.225418,1.23656 z"
     id="path10483"
     inkscape:connector-curvature="0" />
  <path
     style="fill:#fb6747;fill-opacity:1"
     d="M 69.505166,21.730749 C 67.545506,20.176066 67.339615,20.145451 56.070587,19.733073 49.776157,19.502735 43.180491,19.108459 41.413551,18.856905 L 38.200935,18.399533 38.027733,14.086271 37.854532,9.7730093 39.78007,10.165575 c 3.041195,0.620018 18.699291,1.484706 27.188388,1.501425 8.777036,0.01729 8.22169,-0.397156 7.153571,5.338555 -0.642881,3.452215 -1.685688,6.37436 -2.259482,6.331503 -0.201971,-0.01509 -1.262792,-0.737925 -2.357381,-1.606309 z"
     id="path10485"
     inkscape:connector-curvature="0" />
  <path
     style="fill:#fb6747;fill-opacity:1"
     d="m 130.47809,47.313084 c 0.2184,-2.730724 0.90781,-7.462033 1.53201,-10.514019 0.6242,-3.051986 1.43531,-9.389304 1.80247,-14.082929 l 0.66757,-8.533865 5.41856,-0.665902 c 7.42462,-0.912432 14.09013,-0.834816 17.51431,0.203944 3.59648,1.091032 6.31011,1.108938 9.78039,0.06454 2.66645,-0.802483 2.71292,-0.794197 2.45652,0.438084 -0.14374,0.690822 -0.55517,3.982387 -0.91429,7.314589 -1.02561,9.516417 -1.36446,9.906633 -7.6695,8.832342 -2.03848,-0.347327 -8.35712,-0.790368 -14.04143,-0.984536 l -10.33511,-0.353033 -0.3151,1.400909 c -2.04316,9.08391 -5.15137,20.755665 -5.65522,21.236151 -0.46069,0.439321 -0.52779,-0.772774 -0.24118,-4.356271 z"
     id="path10487"
     inkscape:connector-curvature="0" />
  <path
     style="fill:#fb6747;fill-opacity:1"
     d="m 71.640283,45.762369 c -0.216442,-0.216441 -0.160737,-2.547016 0.06088,-2.547016 0.34421,0 0.654383,1.554535 0.428641,2.148279 -0.217043,0.570868 -0.272344,0.615913 -0.489519,0.398737 z"
     id="path10491"
     inkscape:connector-curvature="0" />
</svg>
